<svg xmlns="http://www.w3.org/2000/svg" version="1.1" xmlns:xlink="http://www.w3.org/1999/xlink" xmlns:svgjs="http://svgjs.dev/svgjs" width="1500" height="1500" viewBox="0 0 1500 1500"><rect width="1500" height="1500" fill="#000000"></rect><g transform="matrix(0.6666666666666666,0,0,0.6666666666666666,249.78425655976667,249.78425655976673)"><svg viewBox="0 0 343 343" data-background-color="#000000" preserveAspectRatio="xMidYMid meet" height="1500" width="1500" xmlns="http://www.w3.org/2000/svg" xmlns:xlink="http://www.w3.org/1999/xlink"><g id="tight-bounds" transform="matrix(1,0,0,1,0.0740000000000407,0.07400000000001228)"><svg viewBox="0 0 342.85155851775386 342.85155851775386" height="342.85155851775386" width="342.85155851775386"><rect width="342.852" height="342.852" fill="#ffffff" mask="url(#c5d4319b-01c4-40d8-8124-73e6e7c2d04a)" data-fill-palette-color="tertiary"></rect><g><svg></svg></g><g><svg viewBox="0 0 342.85155851775386 342.85155851775386" height="342.85155851775386" width="342.85155851775386"><g><path d="M0 171.426c0-94.676 76.75-171.426 171.426-171.426 94.676 0 171.426 76.75 171.426 171.426 0 94.676-76.75 171.426-171.426 171.426-94.676 0-171.426-76.75-171.426-171.426zM171.426 338.291c92.157 0 166.866-74.708 166.865-166.865 0-92.157-74.708-166.866-166.865-166.866-92.157 0-166.866 74.708-166.866 166.866 0 92.157 74.708 166.866 166.866 166.865z" data-fill-palette-color="tertiary" fill="#ffffff" stroke="transparent"></path><ellipse rx="164.56874808852186" ry="164.56874808852186" cx="171.42577925887693" cy="171.42577925887693" fill="#ffffff" stroke="transparent" stroke-width="0" fill-opacity="1" data-fill-palette-color="tertiary"></ellipse></g><g transform="matrix(1,0,0,1,64.84655864529837,117.14588583372688)"><svg viewBox="0 0 213.1584412271571 108.5597868503001" height="108.5597868503001" width="213.1584412271571"><g><svg viewBox="0 0 213.1584412271571 108.5597868503001" height="108.5597868503001" width="213.1584412271571"><g><svg viewBox="0 0 213.1584412271571 108.5597868503001" height="108.5597868503001" width="213.1584412271571"><g><svg viewBox="0 0 213.1584412271571 108.5597868503001" height="108.5597868503001" width="213.1584412271571"><g id="textblocktransform"><svg viewBox="0 0 213.1584412271571 108.5597868503001" height="108.5597868503001" width="213.1584412271571" id="textblock"><g><svg viewBox="0 0 213.1584412271571 108.5597868503001" height="108.5597868503001" width="213.1584412271571"><g transform="matrix(1,0,0,1,0,0)"><svg width="213.1584412271571" viewBox="0.7500000000000022 -40.45 175.40000000000012 84.6" height="108.5597868503001" data-palette-color="#000000"><svg></svg><svg></svg><g class="wordmark-text-0" data-fill-palette-color="quaternary" id="text-0"><path d="M17.35-34.65v32.65c0 1.6-1 2.4-3 2.4v0c-1.967 0-2.95-0.8-2.95-2.4v0-32.65h-8.75c-1.2 0-1.833-0.85-1.9-2.55v0c0-1.667 0.633-2.5 1.9-2.5v0h23.45c1.267 0 1.867 0.833 1.8 2.5v0c0 1.7-0.6 2.55-1.8 2.55v0zM37.55-27.9v25.8c0 1.6-0.917 2.4-2.75 2.4v0c-1.867 0-2.8-0.8-2.8-2.4v0-25.8c0-1.6 0.933-2.4 2.8-2.4v0c1.833 0 2.75 0.8 2.75 2.4zM38.6-36.6v0c0 1.067-0.367 1.967-1.1 2.7-0.733 0.733-1.633 1.1-2.7 1.1v0c-1.067 0-1.973-0.367-2.72-1.1-0.753-0.733-1.13-1.633-1.13-2.7v0c0-1.1 0.377-2.017 1.13-2.75 0.747-0.733 1.653-1.1 2.72-1.1v0c1.067 0 1.967 0.367 2.7 1.1 0.733 0.733 1.1 1.65 1.1 2.75zM60-1.95v-19.8c0-0.433-0.067-0.86-0.2-1.28-0.133-0.413-0.3-0.803-0.5-1.17v0c-0.433-0.8-1.333-1.2-2.7-1.2v0h-3.2c-1.367 0-2.283 0.4-2.75 1.2v0c-0.4 0.767-0.6 1.583-0.6 2.45v0 19.8c0 1.567-0.917 2.35-2.75 2.35v0c-1.9 0-2.85-0.783-2.85-2.35v0-20.25c0-2.733 0.9-4.733 2.7-6v0c1.833-1.267 3.617-1.9 5.35-1.9v0h5.05c0.767 0 1.617 0.15 2.55 0.45 0.933 0.3 1.833 0.767 2.7 1.4v0c0.833-0.633 1.71-1.1 2.63-1.4 0.913-0.3 1.787-0.45 2.62-0.45v0h5c1.767 0 3.533 0.633 5.3 1.9v0c1.833 1.233 2.75 3.233 2.75 6v0 20.25c0 1.567-0.933 2.35-2.8 2.35v0c-1.867 0-2.8-0.783-2.8-2.35v0-19.8c0-0.433-0.05-0.867-0.15-1.3-0.1-0.433-0.283-0.833-0.55-1.2v0l0.05 0.05c-0.267-0.433-0.6-0.743-1-0.93-0.4-0.18-0.983-0.27-1.75-0.27v0h-3.15c-1.4 0-2.317 0.4-2.75 1.2v0c-0.433 0.733-0.65 1.55-0.65 2.45v0 19.8c0 1.567-0.917 2.35-2.75 2.35v0c-1.867 0-2.8-0.783-2.8-2.35zM92.7-22.15v14.15c0 0.8 0.26 1.55 0.78 2.25 0.513 0.7 1.387 1.05 2.62 1.05v0h6.25c1.233 0 2.11-0.31 2.63-0.93 0.513-0.613 0.77-1.32 0.77-2.12v0-0.55c0-1.567 0.917-2.35 2.75-2.35v0c1.833 0 2.75 0.783 2.75 2.35v0 0.6c0 1.4-0.223 2.55-0.67 3.45-0.453 0.9-1.13 1.683-2.03 2.35v0c-1.767 1.267-3.533 1.9-5.3 1.9v0h-8.4c-1.767 0-3.483-0.633-5.15-1.9v0c-0.8-0.667-1.417-1.507-1.85-2.52-0.433-1.02-0.65-2.197-0.65-3.53v0-14.25c0-2.7 0.833-4.7 2.5-6v0c0.833-0.6 1.693-1.077 2.58-1.43 0.88-0.347 1.737-0.52 2.57-0.52v0h8.4c0.8 0 1.683 0.157 2.65 0.47 0.967 0.32 1.867 0.747 2.7 1.28v0c0.8 0.567 1.443 1.35 1.93 2.35 0.48 1 0.72 2.183 0.72 3.55v0 6.75c0 0.767-0.223 1.45-0.67 2.05-0.453 0.6-1.28 0.9-2.48 0.9v0h-10.8c-1.2 0-1.833-0.783-1.9-2.35v0c0-1.567 0.633-2.35 1.9-2.35v0h8.5l-0.05-4.65c0-0.833-0.257-1.593-0.77-2.28-0.52-0.68-1.397-1.02-2.63-1.02v0h-6.25c-1.233 0-2.107 0.34-2.62 1.02-0.52 0.687-0.78 1.447-0.78 2.28z" fill="#000000" fill-rule="nonzero" stroke="none" stroke-width="1" stroke-linecap="butt" stroke-linejoin="miter" stroke-miterlimit="10" stroke-dasharray="" stroke-dashoffset="0" font-family="none" font-weight="none" font-size="none" text-anchor="none" style="mix-blend-mode: normal" data-fill-palette-color="quaternary" opacity="1"></path><path d="M30.95 32.55v3.3c0 2.7-0.9 4.717-2.7 6.05v0c-0.867 0.633-1.757 1.123-2.67 1.47-0.92 0.353-1.813 0.53-2.68 0.53v0h-10.9c-0.867 0-1.757-0.177-2.67-0.53-0.92-0.347-1.813-0.837-2.68-1.47v0c-0.867-0.667-1.533-1.49-2-2.47-0.467-0.987-0.7-2.18-0.7-3.58v0-23.75c0-1.333 0.233-2.507 0.7-3.52 0.467-1.02 1.133-1.847 2-2.48v0h-0.05c0.867-0.567 1.767-1.033 2.7-1.4 0.933-0.367 1.833-0.55 2.7-0.55v0h10.9c0.867 0 1.767 0.183 2.7 0.55 0.933 0.367 1.833 0.833 2.7 1.4v0h-0.05c0.867 0.633 1.533 1.46 2 2.48 0.467 1.013 0.7 2.187 0.7 3.52v0 3.45c0 1.6-1 2.4-3 2.4v0c-1.967 0-2.95-0.8-2.95-2.4v0-3c0-0.833-0.25-1.6-0.75-2.3-0.5-0.7-1.367-1.05-2.6-1.05v0h-8.4c-1.233 0-2.1 0.35-2.6 1.05-0.5 0.7-0.75 1.467-0.75 2.3v0 22.9c0 0.867 0.25 1.65 0.75 2.35 0.5 0.7 1.367 1.05 2.6 1.05v0h8.4c1.233 0 2.1-0.35 2.6-1.05 0.5-0.7 0.75-1.483 0.75-2.35v0-2.9c0-1.567 0.983-2.35 2.95-2.35v0c2 0 3 0.783 3 2.35zM43.15 21.1v20.65c0 1.6-0.917 2.4-2.75 2.4v0c-1.9 0-2.85-0.8-2.85-2.4v0-20.7c0-2.733 0.817-4.633 2.45-5.7v0c1.633-1.067 3.517-1.6 5.65-1.6v0h5.7c1.233 0 1.85 0.783 1.85 2.35v0c0.067 1.567-0.55 2.35-1.85 2.35v0h-5.3c-1.2 0-1.983 0.233-2.35 0.7-0.367 0.467-0.55 1.117-0.55 1.95zM71.55 43.85h-6.55c-1.033 0-2.017-0.143-2.95-0.43-0.933-0.28-1.833-0.687-2.7-1.22v0 0.05c-1.633-1.033-2.45-2.933-2.45-5.7v0-2.45c0-1.367 0.243-2.56 0.73-3.58 0.48-1.013 1.153-1.82 2.02-2.42v0h-0.05c0.833-0.567 1.717-0.993 2.65-1.28 0.933-0.28 1.833-0.42 2.7-0.42v0h11.05v-4.65c0-0.833-0.257-1.593-0.77-2.28-0.52-0.68-1.397-1.02-2.63-1.02v0h-5.85c-1.267 0-2.14 0.307-2.62 0.92-0.487 0.62-0.73 1.347-0.73 2.18v0 0.4c0 1.733-0.933 2.6-2.8 2.6v0c-1.867 0-2.8-0.867-2.8-2.6v0-0.45c0-1.367 0.243-2.517 0.73-3.45 0.48-0.933 1.137-1.717 1.97-2.35v0h-0.05c0.867-0.567 1.777-1.033 2.73-1.4 0.947-0.367 1.853-0.55 2.72-0.55v0h7.6c0.833 0 1.727 0.183 2.68 0.55 0.947 0.367 1.837 0.833 2.67 1.4v0h-0.05c0.867 0.633 1.533 1.457 2 2.47 0.467 1.02 0.7 2.197 0.7 3.53v0 20.05c0 1.6-0.917 2.4-2.75 2.4v0c-0.367 0-0.707-0.017-1.02-0.05-0.32-0.033-0.603-0.127-0.85-0.28-0.253-0.147-0.453-0.363-0.6-0.65-0.153-0.28-0.23-0.653-0.23-1.12v0l-0.05-10.95h-10.1c-0.733 0-1.3 0.083-1.7 0.25-0.4 0.167-0.717 0.433-0.95 0.8v0c-0.267 0.567-0.457 1.007-0.57 1.32-0.12 0.32-0.18 0.68-0.18 1.08v0 1.95c0 0.867 0.26 1.523 0.78 1.97 0.513 0.453 1.403 0.68 2.67 0.68v0h5.6c1.233 0 1.85 0.783 1.85 2.35v0c0 0.667-0.15 1.223-0.45 1.67-0.3 0.453-0.767 0.68-1.4 0.68zM94.9 18.45v23.3c0 1.6-0.933 2.4-2.8 2.4v0c-1.833 0-2.75-0.8-2.75-2.4v0-23.3h-2.4c-1.2 0-1.833-0.783-1.9-2.35v0c0-1.567 0.633-2.35 1.9-2.35v0h2.4v-2.4c0-1.367 0.193-2.527 0.58-3.48 0.38-0.947 1.003-1.67 1.87-2.17v0 0.05c0.867-0.533 1.76-0.95 2.68-1.25 0.913-0.3 1.887-0.45 2.92-0.45v0h1.2c1.233 0 1.85 0.783 1.85 2.35v0c0.067 1.567-0.55 2.35-1.85 2.35v0h-0.8c-0.633 0-1.14 0.057-1.52 0.17-0.387 0.12-0.68 0.297-0.88 0.53-0.2 0.233-0.333 0.517-0.4 0.85-0.067 0.333-0.1 0.7-0.1 1.1v0 2.35h3.75c1.3 0 1.917 0.783 1.85 2.35v0c0 1.567-0.617 2.35-1.85 2.35v0zM115.45 18.45h-4.15v18.2c0 0.867 0.183 1.533 0.55 2 0.367 0.467 1.15 0.7 2.35 0.7v0h1.3c1.3 0 1.917 0.767 1.85 2.3v0c0 1.567-0.617 2.35-1.85 2.35v0h-1.65c-1.067 0-2.067-0.143-3-0.43-0.933-0.28-1.833-0.687-2.7-1.22v0 0.05c-1.633-1.067-2.45-2.967-2.45-5.7v0-18.25h-1.95c-1.2 0-1.833-0.783-1.9-2.35v0c0-1.567 0.633-2.35 1.9-2.35v0h1.95v-5.35c0-1.6 0.95-2.4 2.85-2.4v0c1.833 0 2.75 0.8 2.75 2.4v0 5.35h4.15c1.3 0 1.917 0.783 1.85 2.35v0c0 1.567-0.617 2.35-1.85 2.35zM127.2 21.7v14.15c0 0.8 0.26 1.55 0.78 2.25 0.513 0.7 1.387 1.05 2.62 1.05v0h6.25c1.233 0 2.11-0.31 2.63-0.93 0.513-0.613 0.77-1.32 0.77-2.12v0-0.55c0-1.567 0.917-2.35 2.75-2.35v0c1.833 0 2.75 0.783 2.75 2.35v0 0.6c0 1.4-0.223 2.55-0.67 3.45-0.453 0.9-1.13 1.683-2.03 2.35v0c-1.767 1.267-3.533 1.9-5.3 1.9v0h-8.4c-1.767 0-3.483-0.633-5.15-1.9v0c-0.8-0.667-1.417-1.507-1.85-2.52-0.433-1.02-0.65-2.197-0.65-3.53v0-14.25c0-2.7 0.833-4.7 2.5-6v0c0.833-0.6 1.693-1.077 2.58-1.43 0.88-0.347 1.737-0.52 2.57-0.52v0h8.4c0.8 0 1.683 0.157 2.65 0.47 0.967 0.32 1.867 0.747 2.7 1.28v0c0.8 0.567 1.443 1.35 1.93 2.35 0.48 1 0.72 2.183 0.72 3.55v0 6.75c0 0.767-0.223 1.45-0.67 2.05-0.453 0.6-1.28 0.9-2.48 0.9v0h-10.8c-1.2 0-1.833-0.783-1.9-2.35v0c0-1.567 0.633-2.35 1.9-2.35v0h8.5l-0.05-4.65c0-0.833-0.257-1.593-0.77-2.28-0.52-0.68-1.397-1.02-2.63-1.02v0h-6.25c-1.233 0-2.107 0.34-2.62 1.02-0.52 0.687-0.78 1.447-0.78 2.28zM170.65 42.1v-23.65h-9.65c-1.367 0-2.267 0.4-2.7 1.2v0c-0.467 0.7-0.7 1.517-0.7 2.45v0 14.4c0 0.867 0.267 1.523 0.8 1.97 0.533 0.453 1.417 0.68 2.65 0.68v0h5.15c1.2 0 1.8 0.783 1.8 2.35v0c0 0.667-0.14 1.223-0.42 1.67-0.287 0.453-0.747 0.68-1.38 0.68v0h-6.05c-2.1 0-3.967-0.533-5.6-1.6v0c-1.633-1-2.45-2.9-2.45-5.7v0-14.9c0-1.367 0.217-2.55 0.65-3.55 0.433-1 1.117-1.817 2.05-2.45v0c1.767-1.267 3.533-1.9 5.3-1.9v0h10.55v-7.5c0-1.6 0.917-2.4 2.75-2.4v0c1.833 0 2.75 0.8 2.75 2.4v0 35.5c0 1.6-0.917 2.4-2.75 2.4v0c-0.7 0-1.333-0.127-1.9-0.38-0.567-0.247-0.85-0.803-0.85-1.67z" fill="#000000" fill-rule="nonzero" stroke="none" stroke-width="1" stroke-linecap="butt" stroke-linejoin="miter" stroke-miterlimit="10" stroke-dasharray="" stroke-dashoffset="0" font-family="none" font-weight="none" font-size="none" text-anchor="none" style="mix-blend-mode: normal" data-fill-palette-color="quaternary" opacity="1"></path></g></svg></g></svg></g></svg></g></svg></g><g></g></svg></g></svg></g></svg></g></svg></g><defs></defs><mask id="c5d4319b-01c4-40d8-8124-73e6e7c2d04a"><g id="SvgjsG2296"><svg viewBox="0 0 342.85155851775386 342.85155851775386" height="342.85155851775386" width="342.85155851775386"><g><svg></svg></g><g><svg viewBox="0 0 342.85155851775386 342.85155851775386" height="342.85155851775386" width="342.85155851775386"><g><path d="M0 171.426c0-94.676 76.75-171.426 171.426-171.426 94.676 0 171.426 76.75 171.426 171.426 0 94.676-76.75 171.426-171.426 171.426-94.676 0-171.426-76.75-171.426-171.426zM171.426 338.291c92.157 0 166.866-74.708 166.865-166.865 0-92.157-74.708-166.866-166.865-166.866-92.157 0-166.866 74.708-166.866 166.866 0 92.157 74.708 166.866 166.866 166.865z" fill="white" stroke="transparent"></path><ellipse rx="164.56874808852186" ry="164.56874808852186" cx="171.42577925887693" cy="171.42577925887693" fill="white" stroke="transparent" stroke-width="0" fill-opacity="1"></ellipse></g><g transform="matrix(1,0,0,1,64.84655864529837,117.14588583372688)"><svg viewBox="0 0 213.1584412271571 108.5597868503001" height="108.5597868503001" width="213.1584412271571"><g><svg viewBox="0 0 213.1584412271571 108.5597868503001" height="108.5597868503001" width="213.1584412271571"><g><svg viewBox="0 0 213.1584412271571 108.5597868503001" height="108.5597868503001" width="213.1584412271571"><g><svg viewBox="0 0 213.1584412271571 108.5597868503001" height="108.5597868503001" width="213.1584412271571"><g id="SvgjsG2295"><svg viewBox="0 0 213.1584412271571 108.5597868503001" height="108.5597868503001" width="213.1584412271571" id="SvgjsSvg2294"><g><svg viewBox="0 0 213.1584412271571 108.5597868503001" height="108.5597868503001" width="213.1584412271571"><g transform="matrix(1,0,0,1,0,0)"><svg width="213.1584412271571" viewBox="0.7500000000000022 -40.45 175.40000000000012 84.6" height="108.5597868503001" data-palette-color="#000000"><svg></svg><svg></svg><g class="wordmark-text-0" data-fill-palette-color="quaternary" id="SvgjsG2293"><path d="M17.35-34.65v32.65c0 1.6-1 2.4-3 2.4v0c-1.967 0-2.95-0.8-2.95-2.4v0-32.65h-8.75c-1.2 0-1.833-0.85-1.9-2.55v0c0-1.667 0.633-2.5 1.9-2.5v0h23.45c1.267 0 1.867 0.833 1.8 2.5v0c0 1.7-0.6 2.55-1.8 2.55v0zM37.55-27.9v25.8c0 1.6-0.917 2.4-2.75 2.4v0c-1.867 0-2.8-0.8-2.8-2.4v0-25.8c0-1.6 0.933-2.4 2.8-2.4v0c1.833 0 2.75 0.8 2.75 2.4zM38.6-36.6v0c0 1.067-0.367 1.967-1.1 2.7-0.733 0.733-1.633 1.1-2.7 1.1v0c-1.067 0-1.973-0.367-2.72-1.1-0.753-0.733-1.13-1.633-1.13-2.7v0c0-1.1 0.377-2.017 1.13-2.75 0.747-0.733 1.653-1.1 2.72-1.1v0c1.067 0 1.967 0.367 2.7 1.1 0.733 0.733 1.1 1.65 1.1 2.75zM60-1.95v-19.8c0-0.433-0.067-0.86-0.2-1.28-0.133-0.413-0.3-0.803-0.5-1.17v0c-0.433-0.8-1.333-1.2-2.7-1.2v0h-3.2c-1.367 0-2.283 0.4-2.75 1.2v0c-0.4 0.767-0.6 1.583-0.6 2.45v0 19.8c0 1.567-0.917 2.35-2.75 2.35v0c-1.9 0-2.85-0.783-2.85-2.35v0-20.25c0-2.733 0.9-4.733 2.7-6v0c1.833-1.267 3.617-1.9 5.35-1.9v0h5.05c0.767 0 1.617 0.15 2.55 0.45 0.933 0.3 1.833 0.767 2.7 1.4v0c0.833-0.633 1.71-1.1 2.63-1.4 0.913-0.3 1.787-0.45 2.62-0.45v0h5c1.767 0 3.533 0.633 5.3 1.9v0c1.833 1.233 2.75 3.233 2.75 6v0 20.25c0 1.567-0.933 2.35-2.8 2.35v0c-1.867 0-2.8-0.783-2.8-2.35v0-19.8c0-0.433-0.05-0.867-0.15-1.3-0.1-0.433-0.283-0.833-0.55-1.2v0l0.05 0.05c-0.267-0.433-0.6-0.743-1-0.93-0.4-0.18-0.983-0.27-1.75-0.27v0h-3.15c-1.4 0-2.317 0.4-2.75 1.2v0c-0.433 0.733-0.65 1.55-0.65 2.45v0 19.8c0 1.567-0.917 2.35-2.75 2.35v0c-1.867 0-2.8-0.783-2.8-2.35zM92.7-22.15v14.15c0 0.8 0.26 1.55 0.78 2.25 0.513 0.7 1.387 1.05 2.62 1.05v0h6.25c1.233 0 2.11-0.31 2.63-0.93 0.513-0.613 0.77-1.32 0.77-2.12v0-0.55c0-1.567 0.917-2.35 2.75-2.35v0c1.833 0 2.75 0.783 2.75 2.35v0 0.6c0 1.4-0.223 2.55-0.67 3.45-0.453 0.9-1.13 1.683-2.03 2.35v0c-1.767 1.267-3.533 1.9-5.3 1.9v0h-8.4c-1.767 0-3.483-0.633-5.15-1.9v0c-0.8-0.667-1.417-1.507-1.85-2.52-0.433-1.02-0.65-2.197-0.65-3.53v0-14.25c0-2.7 0.833-4.7 2.5-6v0c0.833-0.6 1.693-1.077 2.58-1.43 0.88-0.347 1.737-0.52 2.57-0.52v0h8.4c0.8 0 1.683 0.157 2.65 0.47 0.967 0.32 1.867 0.747 2.7 1.28v0c0.8 0.567 1.443 1.35 1.93 2.35 0.48 1 0.72 2.183 0.72 3.55v0 6.75c0 0.767-0.223 1.45-0.67 2.05-0.453 0.6-1.28 0.9-2.48 0.9v0h-10.8c-1.2 0-1.833-0.783-1.9-2.35v0c0-1.567 0.633-2.35 1.9-2.35v0h8.5l-0.05-4.65c0-0.833-0.257-1.593-0.77-2.28-0.52-0.68-1.397-1.02-2.63-1.02v0h-6.25c-1.233 0-2.107 0.34-2.62 1.02-0.52 0.687-0.78 1.447-0.78 2.28z" fill="black" fill-rule="nonzero" stroke="none" stroke-width="1" stroke-linecap="butt" stroke-linejoin="miter" stroke-miterlimit="10" stroke-dasharray="" stroke-dashoffset="0" font-family="none" font-weight="none" font-size="none" text-anchor="none" style="mix-blend-mode: normal" opacity="1"></path><path d="M30.95 32.55v3.3c0 2.7-0.9 4.717-2.7 6.05v0c-0.867 0.633-1.757 1.123-2.67 1.47-0.92 0.353-1.813 0.53-2.68 0.53v0h-10.9c-0.867 0-1.757-0.177-2.67-0.53-0.92-0.347-1.813-0.837-2.68-1.47v0c-0.867-0.667-1.533-1.49-2-2.47-0.467-0.987-0.7-2.18-0.7-3.58v0-23.75c0-1.333 0.233-2.507 0.7-3.52 0.467-1.02 1.133-1.847 2-2.48v0h-0.05c0.867-0.567 1.767-1.033 2.7-1.4 0.933-0.367 1.833-0.55 2.7-0.55v0h10.9c0.867 0 1.767 0.183 2.7 0.55 0.933 0.367 1.833 0.833 2.7 1.4v0h-0.05c0.867 0.633 1.533 1.46 2 2.48 0.467 1.013 0.7 2.187 0.7 3.52v0 3.45c0 1.6-1 2.4-3 2.4v0c-1.967 0-2.95-0.8-2.95-2.4v0-3c0-0.833-0.25-1.6-0.75-2.3-0.5-0.7-1.367-1.05-2.6-1.05v0h-8.4c-1.233 0-2.1 0.35-2.6 1.05-0.5 0.7-0.75 1.467-0.75 2.3v0 22.9c0 0.867 0.25 1.65 0.75 2.35 0.5 0.7 1.367 1.05 2.6 1.05v0h8.4c1.233 0 2.1-0.35 2.6-1.05 0.5-0.7 0.75-1.483 0.75-2.35v0-2.9c0-1.567 0.983-2.35 2.95-2.35v0c2 0 3 0.783 3 2.35zM43.15 21.1v20.65c0 1.6-0.917 2.4-2.75 2.4v0c-1.9 0-2.85-0.8-2.85-2.4v0-20.7c0-2.733 0.817-4.633 2.45-5.7v0c1.633-1.067 3.517-1.6 5.65-1.6v0h5.7c1.233 0 1.85 0.783 1.85 2.35v0c0.067 1.567-0.55 2.35-1.85 2.35v0h-5.3c-1.2 0-1.983 0.233-2.35 0.7-0.367 0.467-0.55 1.117-0.55 1.95zM71.55 43.85h-6.55c-1.033 0-2.017-0.143-2.95-0.43-0.933-0.28-1.833-0.687-2.7-1.22v0 0.05c-1.633-1.033-2.45-2.933-2.45-5.7v0-2.45c0-1.367 0.243-2.56 0.73-3.58 0.48-1.013 1.153-1.82 2.02-2.42v0h-0.05c0.833-0.567 1.717-0.993 2.65-1.28 0.933-0.28 1.833-0.42 2.7-0.42v0h11.05v-4.65c0-0.833-0.257-1.593-0.77-2.28-0.52-0.68-1.397-1.02-2.63-1.02v0h-5.85c-1.267 0-2.14 0.307-2.62 0.92-0.487 0.62-0.73 1.347-0.73 2.18v0 0.4c0 1.733-0.933 2.6-2.8 2.6v0c-1.867 0-2.8-0.867-2.8-2.6v0-0.45c0-1.367 0.243-2.517 0.73-3.45 0.48-0.933 1.137-1.717 1.97-2.35v0h-0.05c0.867-0.567 1.777-1.033 2.73-1.4 0.947-0.367 1.853-0.55 2.72-0.55v0h7.6c0.833 0 1.727 0.183 2.68 0.55 0.947 0.367 1.837 0.833 2.67 1.4v0h-0.05c0.867 0.633 1.533 1.457 2 2.47 0.467 1.02 0.7 2.197 0.7 3.53v0 20.05c0 1.6-0.917 2.4-2.75 2.4v0c-0.367 0-0.707-0.017-1.02-0.05-0.32-0.033-0.603-0.127-0.85-0.28-0.253-0.147-0.453-0.363-0.6-0.65-0.153-0.28-0.23-0.653-0.23-1.12v0l-0.05-10.95h-10.1c-0.733 0-1.3 0.083-1.7 0.25-0.4 0.167-0.717 0.433-0.95 0.8v0c-0.267 0.567-0.457 1.007-0.57 1.32-0.12 0.32-0.18 0.68-0.18 1.08v0 1.95c0 0.867 0.26 1.523 0.78 1.97 0.513 0.453 1.403 0.68 2.67 0.68v0h5.6c1.233 0 1.85 0.783 1.85 2.35v0c0 0.667-0.15 1.223-0.45 1.67-0.3 0.453-0.767 0.68-1.4 0.68zM94.9 18.45v23.3c0 1.6-0.933 2.4-2.8 2.4v0c-1.833 0-2.75-0.8-2.75-2.4v0-23.3h-2.4c-1.2 0-1.833-0.783-1.9-2.35v0c0-1.567 0.633-2.35 1.9-2.35v0h2.4v-2.4c0-1.367 0.193-2.527 0.58-3.48 0.38-0.947 1.003-1.67 1.87-2.17v0 0.05c0.867-0.533 1.76-0.95 2.68-1.25 0.913-0.3 1.887-0.45 2.92-0.45v0h1.2c1.233 0 1.85 0.783 1.85 2.35v0c0.067 1.567-0.55 2.35-1.85 2.35v0h-0.8c-0.633 0-1.14 0.057-1.52 0.17-0.387 0.12-0.68 0.297-0.88 0.53-0.2 0.233-0.333 0.517-0.4 0.85-0.067 0.333-0.1 0.7-0.1 1.1v0 2.35h3.75c1.3 0 1.917 0.783 1.85 2.35v0c0 1.567-0.617 2.35-1.85 2.35v0zM115.45 18.45h-4.15v18.2c0 0.867 0.183 1.533 0.55 2 0.367 0.467 1.15 0.7 2.35 0.7v0h1.3c1.3 0 1.917 0.767 1.85 2.3v0c0 1.567-0.617 2.35-1.85 2.35v0h-1.65c-1.067 0-2.067-0.143-3-0.43-0.933-0.28-1.833-0.687-2.7-1.22v0 0.05c-1.633-1.067-2.45-2.967-2.45-5.7v0-18.25h-1.95c-1.2 0-1.833-0.783-1.9-2.35v0c0-1.567 0.633-2.35 1.9-2.35v0h1.95v-5.35c0-1.6 0.95-2.4 2.85-2.4v0c1.833 0 2.75 0.8 2.75 2.4v0 5.35h4.15c1.3 0 1.917 0.783 1.85 2.35v0c0 1.567-0.617 2.35-1.85 2.35zM127.2 21.7v14.15c0 0.8 0.26 1.55 0.78 2.25 0.513 0.7 1.387 1.05 2.62 1.05v0h6.25c1.233 0 2.11-0.31 2.63-0.93 0.513-0.613 0.77-1.32 0.77-2.12v0-0.55c0-1.567 0.917-2.35 2.75-2.35v0c1.833 0 2.75 0.783 2.75 2.35v0 0.6c0 1.4-0.223 2.55-0.67 3.45-0.453 0.9-1.13 1.683-2.03 2.35v0c-1.767 1.267-3.533 1.9-5.3 1.9v0h-8.4c-1.767 0-3.483-0.633-5.15-1.9v0c-0.8-0.667-1.417-1.507-1.85-2.52-0.433-1.02-0.65-2.197-0.65-3.53v0-14.25c0-2.7 0.833-4.7 2.5-6v0c0.833-0.6 1.693-1.077 2.58-1.43 0.88-0.347 1.737-0.52 2.57-0.52v0h8.4c0.8 0 1.683 0.157 2.65 0.47 0.967 0.32 1.867 0.747 2.7 1.28v0c0.8 0.567 1.443 1.35 1.93 2.35 0.48 1 0.72 2.183 0.72 3.55v0 6.75c0 0.767-0.223 1.45-0.67 2.05-0.453 0.6-1.28 0.9-2.48 0.9v0h-10.8c-1.2 0-1.833-0.783-1.9-2.35v0c0-1.567 0.633-2.35 1.9-2.35v0h8.5l-0.05-4.65c0-0.833-0.257-1.593-0.77-2.28-0.52-0.68-1.397-1.02-2.63-1.02v0h-6.25c-1.233 0-2.107 0.34-2.62 1.02-0.52 0.687-0.78 1.447-0.78 2.28zM170.65 42.1v-23.65h-9.65c-1.367 0-2.267 0.4-2.7 1.2v0c-0.467 0.7-0.7 1.517-0.7 2.45v0 14.4c0 0.867 0.267 1.523 0.8 1.97 0.533 0.453 1.417 0.68 2.65 0.68v0h5.15c1.2 0 1.8 0.783 1.8 2.35v0c0 0.667-0.14 1.223-0.42 1.67-0.287 0.453-0.747 0.68-1.38 0.68v0h-6.05c-2.1 0-3.967-0.533-5.6-1.6v0c-1.633-1-2.45-2.9-2.45-5.7v0-14.9c0-1.367 0.217-2.55 0.65-3.55 0.433-1 1.117-1.817 2.05-2.45v0c1.767-1.267 3.533-1.9 5.3-1.9v0h10.55v-7.5c0-1.6 0.917-2.4 2.75-2.4v0c1.833 0 2.75 0.8 2.75 2.4v0 35.5c0 1.6-0.917 2.4-2.75 2.4v0c-0.7 0-1.333-0.127-1.9-0.38-0.567-0.247-0.85-0.803-0.85-1.67z" fill="black" fill-rule="nonzero" stroke="none" stroke-width="1" stroke-linecap="butt" stroke-linejoin="miter" stroke-miterlimit="10" stroke-dasharray="" stroke-dashoffset="0" font-family="none" font-weight="none" font-size="none" text-anchor="none" style="mix-blend-mode: normal" opacity="1"></path></g></svg></g></svg></g></svg></g></svg></g><g></g></svg></g></svg></g></svg></g></svg></g><defs><mask></mask></defs></svg><rect width="342.85155851775386" height="342.85155851775386" fill="black" stroke="none" visibility="hidden"></rect></g></mask><linearGradient x1="0.054" x2="0.941" y1="0.5" y2="0.5" id="d39dd621-e453-44fb-befb-3b29fa5bf204"><stop stop-color="#9c7945" offset="0"></stop><stop stop-color="#faf3aa" offset="0.498"></stop><stop stop-color="#9c7945" offset="1"></stop></linearGradient></svg><rect width="342.85155851775386" height="342.85155851775386" fill="none" stroke="none" visibility="hidden"></rect></g></svg></g></svg>